<svg width="30" height="22" viewBox="0 0 30 22" fill="none" xmlns="http://www.w3.org/2000/svg">
<path id="Efficient icon" d="M9.68182 1.14239C9.91364 1.14239 10.1182 1.26511 10.2409 1.45602L10.3364 1.66057L17.4 17.5469C17.6182 17.9424 17.7545 18.3787 17.7545 18.856C17.7545 20.3697 16.5273 21.5969 15.0136 21.5969C13.7045 21.5969 12.6 20.6697 12.3409 19.4288L12.3273 19.3878L9 1.8242C9 1.44239 9.3 1.14239 9.68182 1.14239ZM30 6.59693L27.2727 9.3242C23.3455 5.39693 18.0136 3.76057 12.9136 4.38784L11.2909 0.733296C17.8773 -0.439432 24.9 1.51057 30 6.59693ZM2.72727 9.3242L0 6.59693C2.15624 4.43866 4.75774 2.77724 7.62273 1.72875L8.34546 5.5742C6.3 6.41966 4.39091 7.66057 2.72727 9.3242ZM8.18182 14.7788L5.45455 12.0515C6.54545 10.9606 7.77273 10.1151 9.08182 9.4742L9.83182 13.456C9.25909 13.8242 8.7 14.2606 8.18182 14.7788ZM24.5455 12.0515L21.8182 14.7788C20.3304 13.298 18.4018 12.3408 16.3227 12.0515L14.5773 8.1242C18.1636 8.01511 21.8045 9.31057 24.5455 12.0515Z" fill="#4B6EB4"/>
</svg>
