<svg width="20" height="19" viewBox="0 0 20 19" fill="none" xmlns="http://www.w3.org/2000/svg">
<g id="Icon">
<path id="Uni&#195;&#179;n 1" d="M1.90515 17.314V15.3708C1.90515 13.2333 5.58697 11.4845 10.087 11.4845C14.587 11.4845 18.2688 13.2333 18.2688 15.3708V17.314H1.90515ZM5.99606 5.65491C5.99606 4.88626 6.23599 4.13487 6.6855 3.49576C7.13502 2.85665 7.77393 2.35852 8.52145 2.06437C9.26896 1.77022 10.0915 1.69328 10.8851 1.84324C11.6786 1.99319 12.4076 2.36332 12.9797 2.90683C13.5518 3.45035 13.9414 4.14284 14.0993 4.89672C14.2571 5.6506 14.1761 6.43202 13.8665 7.14216C13.5568 7.8523 13.0325 8.45926 12.3598 8.8863C11.687 9.31334 10.8961 9.54128 10.087 9.54128C9.00199 9.54128 7.96145 9.13183 7.19426 8.40299C6.42707 7.67416 5.99606 6.68564 5.99606 5.65491Z" fill="#708AC3"/>
</g>
</svg>
