<svg width="50" height="14" viewBox="0 0 50 14" fill="none" xmlns="http://www.w3.org/2000/svg">
<g id="roof icon">
<path id="Subtract" fill-rule="evenodd" clip-rule="evenodd" d="M14.7768 0.876587L8.42529 6.44551H18.7284L25.0798 0.876587H14.7768Z" fill="#4B6EB4"/>
<path id="Subtract_2" fill-rule="evenodd" clip-rule="evenodd" d="M6.44936 7.55445L0.0979004 13.1234L10.4018 13.1234L16.7532 7.55449L16.9481 7.55449L16.9482 7.55444L6.44936 7.55445Z" fill="#4B6EB4"/>
<path id="Subtract_3" fill-rule="evenodd" clip-rule="evenodd" d="M27.1874 0.876589L20.8359 6.44551L31.1389 6.44552L37.4904 0.876591L37.6862 0.876587L27.1874 0.876589Z" fill="#4B6EB4"/>
<path id="Subtract_4" fill-rule="evenodd" clip-rule="evenodd" d="M18.8605 7.55457L12.509 13.1235L22.8121 13.1235L29.1636 7.55459L29.3593 7.55459L29.3593 7.55457L18.8605 7.55457Z" fill="#4B6EB4"/>
<path id="Subtract_5" fill-rule="evenodd" clip-rule="evenodd" d="M39.5988 0.876587L33.2473 6.44551H43.5504L49.9019 0.876587H39.5988Z" fill="#4B6EB4"/>
<path id="Subtract_6" fill-rule="evenodd" clip-rule="evenodd" d="M31.2719 7.55457L24.9204 13.1235H35.2235L41.575 7.55457H31.2719Z" fill="#4B6EB4"/>
</g>
</svg>
