<svg width="34" height="24" viewBox="0 0 34 24" fill="none" xmlns="http://www.w3.org/2000/svg">
<path id="Subtract" fill-rule="evenodd" clip-rule="evenodd" d="M32.0471 13.1319C31.1218 11.8301 29.7498 10.9145 28.1927 10.5597C28.3227 9.97458 28.3877 9.38951 28.3877 8.77193C28.403 7.1688 27.9419 5.59723 27.0628 4.25655C26.1837 2.91587 24.9262 1.86647 23.4498 1.24146C21.9735 0.616447 20.3448 0.443974 18.7702 0.745914C17.1957 1.04786 15.7464 1.81061 14.6059 2.93743C13.8649 2.50193 13.0219 2.27008 12.1624 2.26536C11.3029 2.26064 10.4574 2.48323 9.71159 2.91056C8.96582 3.3379 8.34627 3.95479 7.91573 4.69873C7.48519 5.44266 7.25897 6.28719 7.26 7.14672V7.30924C5.28512 7.71025 3.52969 8.83076 2.3345 10.4533C1.1393 12.0757 0.589612 14.0844 0.792136 16.0894C0.994659 18.0944 1.93495 19.9526 3.43046 21.3033C4.92598 22.654 6.87003 23.4008 8.88521 23.3988H26.7625C28.3596 23.3953 29.8994 22.804 31.0884 21.7378C32.2774 20.6715 33.0323 19.2049 33.2091 17.6177C33.3859 16.0304 32.9723 14.4337 32.0471 13.1319ZM9.83414 17.5457C9.31633 17.5457 8.83735 17.4615 8.39721 17.2932C7.96354 17.1185 7.58489 16.8758 7.26126 16.5651C6.9441 16.2479 6.6949 15.879 6.51367 15.4582C6.33244 15.0375 6.24182 14.5747 6.24182 14.0699C6.24182 13.565 6.33244 13.1022 6.51367 12.6815C6.6949 12.2608 6.94734 11.8951 7.27097 11.5844C7.5946 11.2672 7.97325 11.0245 8.40692 10.8562C8.84706 10.6814 9.32603 10.594 9.84385 10.594C10.3681 10.594 10.8503 10.6847 11.2905 10.8659C11.7371 11.0407 12.1157 11.3028 12.4264 11.6523L11.7953 12.264C11.5364 11.9921 11.2452 11.7915 10.9215 11.662C10.5979 11.5261 10.2516 11.4581 9.88268 11.4581C9.5008 11.4581 9.1448 11.5229 8.8147 11.6523C8.49106 11.7818 8.2095 11.963 7.97002 12.196C7.73053 12.429 7.54282 12.7074 7.40689 13.031C7.27744 13.3482 7.21272 13.6944 7.21272 14.0699C7.21272 14.4453 7.27744 14.7948 7.40689 15.1184C7.54282 15.4356 7.73053 15.7107 7.97002 15.9437C8.2095 16.1767 8.49106 16.3579 8.8147 16.4874C9.1448 16.6168 9.5008 16.6816 9.88268 16.6816C10.2516 16.6816 10.5979 16.6168 10.9215 16.4874C11.2452 16.3515 11.5364 16.1443 11.7953 15.866L12.4264 16.4777C12.1157 16.8272 11.7371 17.0926 11.2905 17.2738C10.8503 17.4551 10.3649 17.5457 9.83414 17.5457ZM17.7082 17.5457C17.1904 17.5457 16.7082 17.4583 16.2615 17.2835C15.8214 17.1088 15.4395 16.866 15.1159 16.5554C14.7923 16.2382 14.5398 15.8693 14.3586 15.4485C14.1774 15.0278 14.0867 14.5683 14.0867 14.0699C14.0867 13.5715 14.1774 13.1119 14.3586 12.6912C14.5398 12.2705 14.7923 11.9048 15.1159 11.5941C15.4395 11.2769 15.8214 11.031 16.2615 10.8562C16.7017 10.6814 17.1839 10.594 17.7082 10.594C18.226 10.594 18.7017 10.6814 19.1354 10.8562C19.5755 11.0245 19.9574 11.2672 20.2811 11.5844C20.6112 11.8951 20.8636 12.2608 21.0384 12.6815C21.2196 13.1022 21.3102 13.565 21.3102 14.0699C21.3102 14.5747 21.2196 15.0375 21.0384 15.4582C20.8636 15.879 20.6112 16.2479 20.2811 16.5651C19.9574 16.8758 19.5755 17.1185 19.1354 17.2932C18.7017 17.4615 18.226 17.5457 17.7082 17.5457ZM17.7082 16.6816C18.0836 16.6816 18.4299 16.6168 18.747 16.4874C19.0707 16.3579 19.349 16.1767 19.582 15.9437C19.8215 15.7042 20.006 15.4259 20.1354 15.1087C20.2714 14.7916 20.3393 14.4453 20.3393 14.0699C20.3393 13.6944 20.2714 13.3482 20.1354 13.031C20.006 12.7138 19.8215 12.4388 19.582 12.2057C19.349 11.9662 19.0707 11.7818 18.747 11.6523C18.4299 11.5229 18.0836 11.4581 17.7082 11.4581C17.3263 11.4581 16.9735 11.5229 16.6499 11.6523C16.3327 11.7818 16.0544 11.9662 15.8149 12.2057C15.5754 12.4388 15.3877 12.7138 15.2518 13.031C15.1224 13.3482 15.0576 13.6944 15.0576 14.0699C15.0576 14.4453 15.1224 14.7916 15.2518 15.1087C15.3877 15.4259 15.5754 15.7042 15.8149 15.9437C16.0544 16.1767 16.3327 16.3579 16.6499 16.4874C16.9735 16.6168 17.3263 16.6816 17.7082 16.6816ZM23.01 16.8078V17.468H27.8937V16.6233H24.4123L26.4859 14.6233C26.7901 14.3255 27.0231 14.0569 27.1849 13.8174C27.3467 13.5779 27.4568 13.3514 27.515 13.1378C27.5733 12.9242 27.6024 12.7074 27.6024 12.4873C27.6024 12.0989 27.5053 11.7624 27.3111 11.4776C27.1234 11.1928 26.8548 10.9759 26.5053 10.8271C26.1558 10.6717 25.7447 10.594 25.2722 10.594C24.7479 10.594 24.2657 10.6847 23.8256 10.8659C23.3919 11.0407 23.0456 11.2931 22.7867 11.6232L23.4469 12.196C23.6605 11.9436 23.913 11.7591 24.2042 11.6426C24.4955 11.5196 24.8224 11.4581 25.1849 11.4581C25.6574 11.4581 26.0166 11.5585 26.2625 11.7591C26.5085 11.9598 26.6315 12.2349 26.6315 12.5844C26.6315 12.7268 26.6088 12.8757 26.5635 13.031C26.5247 13.1799 26.4438 13.3449 26.3208 13.5262C26.2043 13.7009 26.0231 13.9048 25.7771 14.1378L23.01 16.8078Z" fill="#4B6EB4"/>
</svg>
